<?xml version="1.0" encoding="utf-8"?>
<!-- Generator: Adobe Illustrator 16.0.0, SVG Export Plug-In . SVG Version: 6.00 Build 0)  -->
<!DOCTYPE svg PUBLIC "-//W3C//DTD SVG 1.1//EN" "http://www.w3.org/Graphics/SVG/1.1/DTD/svg11.dtd">
<svg version="1.1" id="Layer_1" xmlns="http://www.w3.org/2000/svg" xmlns:xlink="http://www.w3.org/1999/xlink" x="0px" y="0px"
	 width="297.826px" height="422.827px" viewBox="0 0 297.826 422.827" enable-background="new 0 0 297.826 422.827"
	 xml:space="preserve">
<g>
	<path fill-rule="evenodd" clip-rule="evenodd" fill="#FF0000" d="M129.028,391.083c0.537,4.473,0.867,14.87,6.628,16.441
		c6.218,1.696,16.604,3.54,20.725-3.557c4.456-7.677,5.25-13.373,5.25-21.775c0-33.336,0-66.673,0-100.009
		c0-68.299,0-136.598,0-204.896c0-16.27,10.219-22.786,23.005-29.646c12.156-6.523,31.061,7.705,39.452,15.089
		c10.721,9.432-1.486,31.742,8.106,41.593c3.941,4.048,10.921,11.126,17.608,7.328c6.891-3.915,9.826-6.161,9.826-14.34
		c0-14.017,2.187-31.158-5.583-43.834c-8.511-13.888-16.436-25.514-31.771-32.211c-29.806-13.017-60.286-1.97-80.484,22.077
		c-13.032,15.516-12.762,36.244-12.762,55.627c0,34.658,0,69.316,0,103.974C129.028,265.656,129.028,328.37,129.028,391.083z"/>
	<path fill-rule="evenodd" clip-rule="evenodd" fill="#0CC10C" d="M7.742,226.014c8.763-3.461,34.589-9.822,38.379-19.935
		c1.477-3.939-1.118-15.168-1.118-19.89c0-9.091,0.533-16.853,2.111-25.798c1.208-6.849,0.865-14.675,8.284-14.675
		c8.153,0,16.023,1.069,24.125,2.041c11.81,1.417,27.101,9.031,37.026,15.533c4.719,3.092,12.143,10.665,17.901,10.207
		c8.931-0.71,16.536-0.894,25.412,0.092c4.163,0.462,12.072-9.371,15.741-11.665c5.473-3.422,13.075-7.772,19.303-9.446
		c14.37-3.862,30.589-9.874,45.238-5.877c4.855,1.324,4.891,39.819,5.174,45.629c0.211,4.349,0.338,8.637,0.338,12.992
		c0,5.012,3.5,4.741,8.019,6.629c11.3,4.721,22.6,9.442,33.899,14.163c-10.724,9.227-21.834,13.379-35.722,15.582
		c-6.666,1.057-3.727,7.097-3.502,13.285c0.281,7.767,0.563,15.533,0.844,23.3c-19-8.536-36.577-18.223-53.656-30.182
		c-8.44-5.91-17.33-11.791-24.946-18.745c-6.88-6.28-15.565-19.635-24.707-19.635c-7.73,0-12.65,14.058-18.567,18.916
		c-8.904,7.313-17.847,14.58-26.712,21.939c-18.184,15.096-34.555,24.162-56.722,32.362c0.26-7.838,5.377-32.144-2.283-34.979
		C27.393,242.602,18.462,236.734,7.742,226.014z"/>
	<path fill-rule="evenodd" clip-rule="evenodd" fill="#00420C" d="M51.896,146.834c-0.563,12.846-1.165,25.048,0.093,37.821
		c0.665,6.747,1.39,13.308,2.567,19.979c1.417,8.027,7.938,4.986,15.453,4.986c12.359,0,25.021-3.21,37.032-5.772
		c4.996-1.066,13.418-4.705,18.447-4.661c6.539,0.058,11.686,4.875,18.592,4.218c6.444-0.614,11.81-2.116,18.028-4.021
		c3.914-1.2,11.982,2.478,15.825,3.383c14.188,3.345,28.116,7.971,42.721,7.971c3.409,0,14.215,2.237,14.69-0.417
		c1.153-6.438,2.751-12.937,3.364-19.452c1.308-13.875,2.509-27.707,3.406-41.613c1.378,14.862,3.541,29.816,3.541,44.751
		c0,3.063-1.245,9.245,0,12.073c0.888,2.016,6.032,4.222,5.697,6.48c-1.19,8.034-2.333,15.061-5.046,22.677
		c-3.714,10.423-5.047,7.848-16.049,6.541c-7.595-0.902-14.816-2.993-22.235-4.873c-13.814-3.5-26.996-8.607-39.918-14.657
		c-7.817-3.66-12.712-6.188-18.823-12.158c-1.2-1.173-16.624-0.748-18.119,0.748c-9.875,9.876-21.075,21.19-34.636,25.968
		c-8.719,3.071-17.439,6.144-26.159,9.216c-9.441,3.325-10.443,0.365-13.552-8.8c-0.899-2.651,1.253-7.126-1.47-8.433
		c-4.096-1.966-3.829-2.876-5.187-7.255c-2.687-8.668-4.164-15.23-4.674-24.249C44.491,179.691,43.664,162.867,51.896,146.834z"/>
	<path fill-rule="evenodd" clip-rule="evenodd" fill="#FFFFFF" d="M130.146,339.849c0,4.759-2.777,26.158,0.938,28.301
		c9.81,5.657,19.619,11.314,29.429,16.972c0-4.764,2.779-26.361-0.938-28.482C149.765,351.042,139.956,345.446,130.146,339.849z"/>
	<path fill-rule="evenodd" clip-rule="evenodd" fill="#FFFFFF" d="M130.146,283.956c0,4.782-2.792,26.336,0.938,28.487
		c9.81,5.657,19.619,11.314,29.429,16.972c0-4.782,2.792-26.337-0.938-28.488C149.765,295.269,139.956,289.613,130.146,283.956z"/>
	<path fill-rule="evenodd" clip-rule="evenodd" fill="#FFFFFF" d="M130.146,228.25c0,4.759-2.777,26.158,0.938,28.301
		c9.81,5.658,19.619,11.315,29.429,16.973c0-4.764,2.779-26.36-0.938-28.481C149.765,239.445,139.956,233.848,130.146,228.25z"/>
	<path fill-rule="evenodd" clip-rule="evenodd" fill="#FFFFFF" d="M130.146,116.652c0,4.759-2.777,26.159,0.938,28.302
		c9.81,5.657,19.619,11.314,29.429,16.971c0-4.764,2.779-26.36-0.938-28.481C149.765,127.847,139.956,122.25,130.146,116.652z"/>
	<path fill-rule="evenodd" clip-rule="evenodd" fill="#FFFFFF" d="M160.513,107.337c-4.358-2.513-30.367-13.998-30.367-18.031
		c0-12.483,1.029-23.434,4.657-35.439c8.305,7.884,16.61,15.768,24.915,23.652C163.857,81.448,160.513,101.374,160.513,107.337z"/>
	<path fill-rule="evenodd" clip-rule="evenodd" fill="#FFFFFF" d="M172.065,54.985c-2.021-5.083-13.938-27.998-9.483-29.987
		c10.1-4.508,19.53-8.189,30.536-9.51c-1.683,9.496-3.365,18.993-5.048,28.489C186.826,51.004,178.248,52.315,172.065,54.985z"/>
	<path fill-rule="evenodd" clip-rule="evenodd" fill="#FFFFFF" d="M230.378,28.344c-7.763,6.955-15.526,13.911-23.289,20.866
		c4.493,2.553,13.215,10.99,17.781,9.757c9.289-2.507,18.577-5.014,27.865-7.521C246.383,42.083,240.38,33.97,230.378,28.344z"/>
	<path fill-rule="evenodd" clip-rule="evenodd" fill="#FFFFFF" d="M229.26,75.852c10.135,2.639,20.271,5.277,30.405,7.916
		c4.78,1.245-0.226,22.671-4.379,24.493c-7.469,3.276-18.939,5.979-23.731-3.35C227.224,96.479,229.26,85.206,229.26,75.852z"/>
	<path fill-rule="evenodd" clip-rule="evenodd" d="M48.73,144.598c-3.558,17.788-5.703,34.486-5.021,52.667
		c0.343,9.139,2.148,18.147,3.823,27.123c1.602,8.581,11.786,6.661,19.303,5.848c16.881-1.825,37.215-4.767,51.746-14.241
		c1.762-1.148,8.392-7.401,10.261-7.679c3.043-0.453,8.559,2.981,12.314,2.981c6.269,0,20.105,0.159,22.526-7.08
		c-7.749,3.351-27.861,9.692-34.84,1.304c-2.063-2.479-2.074-13.052-1.852-16.234c0.438-6.278,1.826-11.88,6.323-16.556
		c-7.671-2.978-10.158,15.067-10.06,20.307c0.125,6.704,3.434,8.373-3.648,10.116c-4.482,1.103-8.888,2.266-13.312,3.578
		c-18.015,5.345-35.168,8.849-54.023,8.849c14.072,1.436,25.641,0.968,39.592-1.025c4.273-0.61,31.241-11.166,32.509-6.614
		c2.304,8.271-65.287,23.848-73.219,15.651c-2.815-2.909-2.88-17.777-3.405-21.548c-0.802-5.758-0.692-11.77-0.693-17.577
		c-0.002-7.577-1.49-33.172,5.961-37.261c8.236-4.519,29.317,2.47,37.464,5.331c13.429,4.715,24.822,11.358,36.873,18.889
		c-11.639-10.302-23.009-17.509-37.704-22.746C78.434,144.685,60.27,140.223,48.73,144.598z"/>
	<path fill-rule="evenodd" clip-rule="evenodd" d="M241.744,144.598c3.525,18.802,7.794,38.868,4.73,58.095
		c-0.787,4.937-1.613,27.607-7.671,27.607c-9.501,0-20.214,0.774-29.503-1.644c-11.355-2.955-51.075-9.707-47.39-26.023
		c1.554-6.876,3.94-21.381-2.515-26.456c-6.521-5.126-20.85-2.55-28.319-1.77c1.067-5.196,26.613-6.148,29.549-1.687
		c3.127,4.752,5.758,8.931,6.095,14.815c0.257,4.495-2.729,14.029,1.484,15.035c23.599,5.635,45.075,13.01,69.627,13.01
		c-13.959,1.438-25.381,0.952-39.22-1.025c-3.613-0.516-32.472-10.623-32.882-6.614c-0.572,5.595,32.517,13.877,36.345,15.023
		c6.313,1.888,32.042,6.131,37.246,0.628c2.712-2.868,2.595-17.851,3.063-21.548c0.73-5.765,1.033-11.771,1.036-17.577
		c0.004-7.296,0.901-33.428-5.963-37.261c-8.182-4.569-29.532,2.481-37.649,5.331c-13.459,4.725-24.935,11.416-37.06,18.889
		c11.781-10.259,23.31-17.483,38.077-22.746C211.41,144.909,231,139.627,241.744,144.598z"/>
	<path fill-rule="evenodd" clip-rule="evenodd" d="M144.864,209.992c31.654,29.39,67.482,56.764,107.5,73.406
		c-0.449-5.928-5.659-38.686-1.16-39.738c15.901-3.722,29.072-7.171,41.215-18.576c-15.39-6.68-32.224-16.748-48.438-20.867
		c-3.34,7.736,33.112,19.566,39.683,22.357c-8.125,9.251-23.526,10.999-35.067,12.786c-6.788,1.051-3.631,6.882-3.204,13.154
		c0.522,7.686,1.046,15.372,1.568,23.059c-19.148-7.566-35.393-18.01-52.025-30.157c-9.419-6.88-18.807-13.796-28.174-20.746
		C159.834,219.531,154.454,208.278,144.864,209.992z"/>
	<path fill-rule="evenodd" clip-rule="evenodd" d="M143.56,211.855c-26.867,34.626-61.015,60.243-102.655,73.964
		c0.613-7.018,1.227-14.034,1.84-21.052c0.757-8.657,3.541-11.929-4.369-15.601c-13.093-6.077-23.744-12.226-32.497-23.897
		c13.381-5.837,26.66-11.199,39.124-18.816c4.389,7.232-26.742,17.491-32.604,19.934c7.954,9.43,16.595,14.872,28.505,18.073
		c8.822,2.371,7.855,1.549,6.973,10.7c-0.709,7.363-1.419,14.726-2.129,22.089c20.815-3.532,37-15.867,54.033-27.689
		c8.458-5.87,16.11-12.961,23.576-20.01C127.209,225.913,139.402,207.948,143.56,211.855z"/>
	<path fill-rule="evenodd" clip-rule="evenodd" d="M157.905,218.935c0.034,31.558,0.067,63.114,0.102,94.672
		c0.021,20.256,0.043,40.513,0.064,60.769c0.008,7.231,1.764,16.951-0.725,23.974c-5.445,15.366-24.951,8.507-24.967-5.968
		c-0.04-36.636-0.08-73.271-0.119-109.907c-0.022-19.999-0.043-39.999-0.065-59.998c-7.754,9.253-5.765,15.994-5.751,28.152
		c0.023,20.888,0.047,41.776,0.071,62.664c0.023,20.596,0.046,41.191,0.069,61.786c0.009,7.716-1.621,17.806,0.954,25.319
		c6.294,18.368,32.599,15.158,36.144-3.167c1.687-8.721,0.186-18.966,0.186-27.758c0-21.365,0-42.729,0-64.095
		c0-19.892,0-39.784,0-59.676C163.867,233.977,166.302,227.072,157.905,218.935z"/>
	<path fill-rule="evenodd" clip-rule="evenodd" d="M157.905,174.78c0-32.03,0-64.06,0-96.089c0-24.124,26.894-38.515,48.067-32.462
		c11.152,3.188,20.337,12.953,23.848,23.847c3.46,10.737-2.247,24.011,3.818,33.721c3.813,6.104,12.248,7.413,17.979,3.354
		c8.402-5.95,6.195-20.15,5.59-28.878c-3.47-49.984-63.282-77.621-102.47-44.9c-16.77,14.002-22.543,33.221-22.543,54.234
		c0,29.058,0,58.115,0,87.172c-5.615-4.528-5.775-4.29-5.775-10.959c0-9.565,0-19.13,0-28.695c0-18.395,0-36.789,0-55.183
		c0-20.563,11.064-41.651,27.835-53.483c39.292-27.722,96.902-7.905,107.237,40.449c3.336,15.608,6.427,50.301-18.63,48.44
		c-26.122-1.94-12.444-36.547-22.544-51.42c-12.974-19.105-42.564-17.31-53.283,3.167c-4.901,9.364-3.168,20.872-3.168,31.017
		c0,20.819,0,41.638,0,62.458C163.867,168.966,164.66,169.503,157.905,174.78z"/>
	<path fill-rule="evenodd" clip-rule="evenodd" d="M160.328,388.66c-6.25-3.604-12.5-7.208-18.751-10.813
		c-8.024-4.627-11.618-4.351-11.618-13.592c6.25,3.604,12.5,7.209,18.75,10.813C156.734,379.696,160.328,379.419,160.328,388.66z"/>
	<path fill-rule="evenodd" clip-rule="evenodd" d="M160.328,360.715c-6.25-3.566-12.5-7.132-18.751-10.698
		c-8.184-4.67-11.618-4.303-11.618-13.709c6.25,3.604,12.5,7.209,18.75,10.813C156.736,351.75,160.328,351.473,160.328,360.715z"/>
	<path fill-rule="evenodd" clip-rule="evenodd" d="M160.328,332.955c-6.25-3.604-12.5-7.208-18.751-10.813
		c-8.026-4.628-11.618-4.352-11.618-13.594c6.25,3.565,12.5,7.132,18.75,10.698C156.894,323.916,160.328,323.548,160.328,332.955z"
		/>
	<path fill-rule="evenodd" clip-rule="evenodd" d="M160.328,305.008c-6.25-3.604-12.5-7.209-18.751-10.813
		c-8.025-4.629-11.618-4.353-11.618-13.594c6.25,3.566,12.5,7.132,18.75,10.698C156.893,295.969,160.328,295.603,160.328,305.008z"
		/>
	<path fill-rule="evenodd" clip-rule="evenodd" d="M160.328,277.063c-6.25-3.604-12.5-7.209-18.751-10.813
		c-8.024-4.628-11.618-4.353-11.618-13.593c6.25,3.604,12.5,7.209,18.75,10.813C156.734,268.098,160.328,267.823,160.328,277.063z"
		/>
	<path fill-rule="evenodd" clip-rule="evenodd" d="M160.328,249.118c-6.25-3.566-12.5-7.133-18.751-10.699
		c-8.182-4.669-11.618-4.303-11.618-13.707c6.25,3.604,12.5,7.209,18.75,10.813C156.735,240.153,160.328,239.876,160.328,249.118z"
		/>
	<path fill-rule="evenodd" clip-rule="evenodd" d="M160.328,165.465c-6.25-3.604-12.5-7.208-18.751-10.813
		c-8.025-4.628-11.618-4.352-11.618-13.593c6.25,3.604,12.5,7.209,18.75,10.813C156.735,156.5,160.328,156.224,160.328,165.465z"/>
	<path fill-rule="evenodd" clip-rule="evenodd" d="M160.328,137.519c-6.25-3.566-12.5-7.132-18.751-10.698
		c-8.184-4.669-11.618-4.302-11.618-13.708c6.25,3.604,12.5,7.209,18.75,10.813C156.735,128.554,160.328,128.278,160.328,137.519z"
		/>
	<path fill-rule="evenodd" clip-rule="evenodd" d="M160.328,109.573c-6.25-3.566-12.5-7.132-18.751-10.698
		c-8.043-4.589-11.618-4.281-11.618-13.521c6.25,3.566,12.5,7.132,18.75,10.698C156.753,100.641,160.328,100.332,160.328,109.573z"
		/>
	<path fill-rule="evenodd" clip-rule="evenodd" d="M159.023,80.509c-5.153-4.642-28.842-19.779-22.17-26.642
		c5.349,4.203,10.698,8.406,16.047,12.609C160.001,72.056,160.453,71.527,159.023,80.509z"/>
	<path fill-rule="evenodd" clip-rule="evenodd" d="M156.788,27.226c4.285,10.433,8.57,20.866,12.855,31.299
		c9.978-4.209-4.168-26.235-7.08-33.722C160.78,25.551,158.34,26.09,156.788,27.226z"/>
	<path fill-rule="evenodd" clip-rule="evenodd" d="M184.734,48.092c1.666-8.798,0.863-32.195,11.736-33.722
		C194.971,22.788,195.819,48.422,184.734,48.092z"/>
	<path fill-rule="evenodd" clip-rule="evenodd" d="M204.668,46.788c5.85-5.85,17.899-25.125,26.643-18.444
		C225.922,33.732,211.446,55.439,204.668,46.788z"/>
	<path fill-rule="evenodd" clip-rule="evenodd" d="M220.876,57.221c6.411-1.571,12.821-3.141,19.232-4.712
		c7.915-1.939,8.271-2.689,14.676,2.476C246.851,56.786,224.941,66.96,220.876,57.221z"/>
	<path fill-rule="evenodd" clip-rule="evenodd" d="M229.075,73.616c6.152,1.45,12.304,2.9,18.456,4.35
		c8.63,2.034,10.484,0.633,11.912,9.437C251.94,85.423,226.319,83.945,229.075,73.616z"/>
</g>
</svg>
