<?xml version="1.0" encoding="UTF-8" standalone="no"?>
<svg
   xmlns:dc="http://purl.org/dc/elements/1.1/"
   xmlns:cc="http://creativecommons.org/ns#"
   xmlns:rdf="http://www.w3.org/1999/02/22-rdf-syntax-ns#"
   xmlns:svg="http://www.w3.org/2000/svg"
   xmlns="http://www.w3.org/2000/svg"
   xmlns:sodipodi="http://sodipodi.sourceforge.net/DTD/sodipodi-0.dtd"
   xmlns:inkscape="http://www.inkscape.org/namespaces/inkscape"
   xml:space="preserve"
   viewBox="-0.592 -0.529 512 550"
   version="1.1"
   id="svg14"
   sodipodi:docname="itemStonefall.svg"
   width="512"
   height="550"
   inkscape:version="0.92.4 (unknown)"><defs
   id="defs18" /><sodipodi:namedview
   pagecolor="#ffffff"
   bordercolor="#666666"
   borderopacity="1"
   objecttolerance="10"
   gridtolerance="10"
   guidetolerance="10"
   inkscape:pageopacity="0"
   inkscape:pageshadow="2"
   inkscape:window-width="1260"
   inkscape:window-height="899"
   id="namedview16"
   showgrid="false"
   inkscape:zoom="0.51982379"
   inkscape:cx="256"
   inkscape:cy="227"
   inkscape:window-x="3113"
   inkscape:window-y="693"
   inkscape:window-maximized="0"
   inkscape:current-layer="svg14" />
		<path
   d="M 41.184,549.3 C 18.432,549.3 0,530.8 0,508.05 c 0,-7.272 1.872,-14.4 5.544,-20.664 l 214.06,-370.74 c 15.912,-27.576 55.512,-27.504 71.352,0 l 214.13,370.73 c 3.672,6.336 5.544,13.464 5.544,20.664 0,22.752 -18.432,41.184 -41.184,41.256 H 41.186 Z"
   id="path2"
   inkscape:connector-curvature="0"
   style="fill:#ed171f" />
		<polygon
   points="52.272,405.71 458.5,405.71 255.38,53.919 "
   id="polygon4"
   style="fill:#feb82f"
   transform="translate(0,96)" />
		<polygon
   points="207.5,246.02 189.43,218.73 203.98,201.52 202.75,185.39 227.16,178.7 237.96,188.56 238.25,192.66 250.92,206.63 240.12,223.12 240.48,237.38 "
   id="polygon6"
   transform="translate(0,96)" />
		<polygon
   points="239.47,302.82 241.99,332.06 261.65,344.73 274.32,339.04 290.88,342.86 298.15,328.24 290.23,318.74 290.88,300.02 258.48,283.31 "
   id="polygon8"
   transform="translate(0,96)" />
		<polygon
   points="382.82,379.07 379.73,357.76 357.48,348.26 347.33,358.41 333,358.41 327.02,380.66 334.01,393.04 230.62,393.04 226.15,372.66 218.88,358.7 218.59,344.15 213.19,330.83 209.38,307.94 203.98,295.26 202.68,285.9 199.22,276.33 198.29,265.53 190.01,249.76 190.3,226.29 184.97,212.32 178.56,186.9 52.272,405.64 458.42,405.64 451.15,393.04 368.86,393.04 "
   id="polygon10"
   transform="translate(0,96)" />
<metadata
   id="metadata12"><rdf:RDF><cc:Work><dc:format>image/svg+xml</dc:format><dc:type
         rdf:resource="http://purl.org/dc/dcmitype/StillImage" /><cc:license
         rdf:resource="http://creativecommons.org/publicdomain/zero/1.0/" /><dc:publisher><cc:Agent
           rdf:about="http://openclipart.org/"><dc:title>Openclipart</dc:title></cc:Agent></dc:publisher><dc:title></dc:title></cc:Work><cc:License
       rdf:about="http://creativecommons.org/publicdomain/zero/1.0/"><cc:permits
         rdf:resource="http://creativecommons.org/ns#Reproduction" /><cc:permits
         rdf:resource="http://creativecommons.org/ns#Distribution" /><cc:permits
         rdf:resource="http://creativecommons.org/ns#DerivativeWorks" /></cc:License></rdf:RDF></metadata></svg>