<?xml version="1.0" encoding="UTF-8" standalone="no"?>
<!-- Created with Inkscape (http://www.inkscape.org/) -->

<svg
   xmlns:dc="http://purl.org/dc/elements/1.1/"
   xmlns:cc="http://creativecommons.org/ns#"
   xmlns:rdf="http://www.w3.org/1999/02/22-rdf-syntax-ns#"
   xmlns:svg="http://www.w3.org/2000/svg"
   xmlns="http://www.w3.org/2000/svg"
   xmlns:sodipodi="http://sodipodi.sourceforge.net/DTD/sodipodi-0.dtd"
   xmlns:inkscape="http://www.inkscape.org/namespaces/inkscape"
   id="svg3418"
   sodipodi:docname="itemDanger.svg"
   viewBox="0 0 587.11 600.39"
   version="1.1"
   inkscape:version="0.92.4 (unknown)"
   width="587.10999"
   height="600.39001">
  <defs
     id="defs17" />
  <sodipodi:namedview
     id="base"
     bordercolor="#666666"
     inkscape:pageshadow="2"
     inkscape:window-y="1208"
     fit-margin-left="0"
     pagecolor="#ffffff"
     fit-margin-top="0"
     inkscape:window-maximized="0"
     inkscape:zoom="0.35"
     inkscape:window-x="3668"
     inkscape:window-height="743"
     showgrid="false"
     borderopacity="1.0"
     inkscape:current-layer="layer1"
     inkscape:cx="478.96091"
     inkscape:cy="213.36644"
     fit-margin-right="0"
     fit-margin-bottom="0"
     inkscape:window-width="595"
     inkscape:pageopacity="0.0"
     inkscape:document-units="px" />
  <g
     id="layer1"
     inkscape:label="Calque 1"
     inkscape:groupmode="layer"
     transform="translate(561.1,-602.49)">
    <g
       id="g3029"
       inkscape:export-ydpi="14.610658"
       inkscape:export-xdpi="14.610658"
       inkscape:export-filename="/home/yves/Bureau/openclipart/advertising.png"
       transform="matrix(0.82302,0,0,0.82302,-570.5,631.92)">
      <g
         id="g3031"
         inkscape:label="Layer 1">
        <g
           id="g3033">
          <path
             id="path3035"
             style="fill:none;stroke:#000000;stroke-width:12.5;stroke-linecap:round"
             sodipodi:type="inkscape:offset"
             d="m 291.33984,-65.6875 c -10.8681,0.534341 -20.72001,6.547321 -26.16406,15.96875 -135.20833,234.20833 -270.4166658,468.41667 -405.625,702.625 -5.72547,9.91086 -5.72051,22.11697 0,32.03125 5.72051,9.91429 16.28469,16.0262 27.73047,16.0293 269.29167,0.0521 538.58333,0.10417 807.875,0.15625 11.41896,-0.006 21.97194,-6.08999 27.69922,-15.96875 5.7273,-9.87876 5.76014,-22.05583 0.0918,-31.96875 C 588.86394,418.92513 454.7806,184.66472 320.69727,-49.595703 314.71494,-60.054223 303.37433,-66.2707 291.33984,-65.6875 Z"
             inkscape:original="M 291.31250 -66.250000 C 280.25379 -65.706287 270.22703 -59.586667 264.68750 -50.000000 C 129.47917 184.20833 -5.7291671 418.41667 -140.93750 652.62500 C -146.76339 662.70968 -146.75810 675.13101 -140.93750 685.21875 C -135.11691 695.30650 -124.36529 701.52810 -112.71875 701.53125 C 156.57292 701.58333 425.86458 701.63542 695.15625 701.68750 C 706.77537 701.68103 717.51606 695.48946 723.34375 685.43750 C 729.17146 675.38555 729.20513 662.99280 723.43750 652.90625 C 589.35417 418.64583 455.27083 184.38542 321.18750 -49.875000 C 315.10044 -60.516625 303.55768 -66.843410 291.31250 -66.250000 z "
             transform="matrix(0.80662,0,0,0.80662,133.19,123.15)"
             inkscape:radius="-0.56398124" />
          <path
             id="path3037"
             style="fill:#ffcc00;fill-rule:evenodd;stroke:#000000;stroke-width:29.44400024;stroke-linecap:round;stroke-linejoin:round"
             sodipodi:type="inkscape:offset"
             d="M 292.89453,-32.375 C 158.06507,201.17706 23.235717,434.72919 -111.59375,668.28125 c 268.54297,0.0519 537.08593,0.10431 805.62891,0.15625 C 560.32205,434.824 426.60868,201.24034 292.89453,-32.375 Z"
             inkscape:original="M 292.84375 -34.406250 C 292.55766 -34.384962 292.41873 -34.300416 292.28125 -34.062500 C 157.07292 200.14583 21.864583 434.35417 -113.34375 668.56250 C -113.50493 668.84151 -113.51690 668.98116 -113.34375 669.28125 C -113.16085 669.59824 -113.03490 669.65616 -112.71875 669.65625 C 156.57292 669.70833 425.86458 669.76042 695.15625 669.81250 C 695.49264 669.81231 695.57989 669.76217 695.75000 669.46875 C 695.91472 669.18463 695.92457 668.96940 695.78125 668.71875 C 561.69842 434.45921 427.61508 200.23005 293.53125 -34.031250 C 293.36499 -34.321919 293.19028 -34.413549 292.87500 -34.406250 C 292.86355 -34.405985 292.85557 -34.406809 292.84375 -34.406250 z "
             transform="matrix(0.80662,0,0,0.80662,133.19,123.15)"
             inkscape:radius="-1.3749481" />
        </g>
      </g>
      <g
         id="g1192"
         transform="matrix(5.1553,0,0,5.1553,-38.606,9.51)">
        <path
           id="path1193"
           d="m 70.455,90.444 c 0,-2.9306 1.5582,-5.4974 3.8913,-6.917 l -9.576,-17.629 c -8.574,4.822 -14.367,14.008 -14.367,24.546 h 20.052 z"
           style="fill:#000000"
           inkscape:connector-curvature="0" />
        <path
           id="path1194"
           d="m 82.995,97.677 c -2.5385,1.4658 -5.5408,1.3999 -7.9373,0.089 l -10.481,17.114 c 8.4654,5.015 19.318,5.439 28.446,0.168 L 82.9947,97.675 Z"
           style="fill:#000000"
           inkscape:connector-curvature="0" />
        <path
           id="path1195"
           d="m 82.904,82.568 c 2.5389,1.4656 3.9834,4.0991 4.0464,6.8301 l 20.061,0.5201 c 0.11,-9.8399 -4.951,-19.451 -14.08,-24.721 l -10.026,17.371 z"
           style="fill:#000000"
           inkscape:connector-curvature="0" />
        <path
           id="path1196"
           d="m 78.795,96.073 c 3.1085,0 5.6286,-2.5201 5.6286,-5.6287 0,-3.1085 -2.5201,-5.6286 -5.6286,-5.6286 -3.1085,0 -5.6286,2.5201 -5.6286,5.6286 0,3.1086 2.5201,5.6287 5.6286,5.6287 z"
           style="fill:#000000"
           inkscape:connector-curvature="0" />
      </g>
    </g>
  </g>
  <metadata
     id="metadata14">
    <rdf:RDF>
      <cc:Work>
        <dc:format>image/svg+xml</dc:format>
        <dc:type
           rdf:resource="http://purl.org/dc/dcmitype/StillImage" />
        <cc:license
           rdf:resource="http://creativecommons.org/publicdomain/zero/1.0/" />
        <dc:publisher>
          <cc:Agent
             rdf:about="http://openclipart.org/">
            <dc:title>Openclipart</dc:title>
          </cc:Agent>
        </dc:publisher>
        <dc:title>warning</dc:title>
        <dc:date>2010-10-23T19:17:32</dc:date>
        <dc:description />
        <dc:source>https://openclipart.org/detail/92269/warning-by-yves_guillou-92269</dc:source>
        <dc:creator>
          <cc:Agent>
            <dc:title>yves_guillou</dc:title>
          </cc:Agent>
        </dc:creator>
        <dc:subject>
          <rdf:Bag>
            <rdf:li>warning</rdf:li>
          </rdf:Bag>
        </dc:subject>
      </cc:Work>
      <cc:License
         rdf:about="http://creativecommons.org/publicdomain/zero/1.0/">
        <cc:permits
           rdf:resource="http://creativecommons.org/ns#Reproduction" />
        <cc:permits
           rdf:resource="http://creativecommons.org/ns#Distribution" />
        <cc:permits
           rdf:resource="http://creativecommons.org/ns#DerivativeWorks" />
      </cc:License>
    </rdf:RDF>
  </metadata>
</svg>
